<svg xmlns="http://www.w3.org/2000/svg" preserveAspectRatio="xMidYMid" width="100" height="139" viewBox="0 0 100 139"><defs><style>.cls-3 { fill: #562f89; } .cls-4 { fill: #000000; opacity: 0.3; } .cls-5 { fill: #ffffff; }</style></defs><g id="after-efectssvg" fill-rule="evenodd"><path d="M4 0h63.067L100 33.083V135c0 2.21-1.79 4-4 4H4c-2.21 0-4-1.79-4-4V4c0-2.21 1.79-4 4-4z" id="path-1" class="cls-3"/><path d="M67 29V-.14L99.98 33H71" id="path-2" class="cls-4"/><path d="M81.11 76.914H61.712c.104 2.393.71 4.126 1.82 5.2 1.11 1.075 2.704 1.612 4.784 1.612 1.49 0 2.773-.372 3.848-1.117 1.074-.747 1.733-1.536 1.976-2.367h6.5c-1.04 3.224-2.634 5.53-4.783 6.916-2.15 1.385-4.75 2.08-7.8 2.08-2.115 0-4.022-.34-5.72-1.016-1.7-.675-3.138-1.637-4.316-2.885-1.178-1.25-2.088-2.74-2.73-4.473-.64-1.734-.96-3.64-.96-5.72 0-2.01.328-3.883.987-5.616.658-1.733 1.594-3.232 2.808-4.497 1.213-1.266 2.66-2.262 4.342-2.99 1.68-.728 3.544-1.093 5.59-1.093 2.288 0 4.28.442 5.98 1.327 1.698.884 3.094 2.07 4.186 3.562 1.092 1.49 1.88 3.188 2.366 5.095.484 1.906.657 3.9.52 5.98zm-9.23-8.943c-.885-.97-2.23-1.456-4.03-1.456-1.18 0-2.16.2-2.94.6-.78.397-1.403.89-1.87 1.48-.47.59-.8 1.214-.99 1.873-.19.658-.303 1.248-.337 1.768h12.012c-.347-1.872-.962-3.294-1.846-4.264zM46.79 88.564l-2.81-8.27H30.098l-2.912 8.27H18.97l14.04-37.128h8.37l13.885 37.128H46.79zm-9.62-27.976h-.105L32.23 74.21h9.62l-4.68-13.623z" id="path-3" class="cls-5"/></g></svg>