<svg xmlns="http://www.w3.org/2000/svg" preserveAspectRatio="xMidYMid" width="101" height="140" viewBox="0 0 101 140"><defs><style>.cls-3 { fill: #43d4ad; } .cls-4 { fill: #000000; opacity: 0.3; } .cls-5 { fill: #ffffff; }</style></defs><g id="auditionsvg" fill-rule="evenodd"><path d="M4.014.15H67.3l33.048 36.007v98.922c0 2.404-1.797 4.353-4.013 4.353H4.015c-2.218 0-4.015-1.95-4.015-4.354V4.503C0 2.1 1.797.15 4.014.15z" id="path-1" class="cls-3"/><path d="M67.233 31.713V-.003l33.096 36.07H71.246" id="path-2" class="cls-4"/><path d="M72.83 89.76v-4.086h-.157c-.936 1.702-2.15 2.93-3.64 3.687-1.49.757-3.016 1.136-4.576 1.136-1.976 0-3.597-.284-4.862-.85-1.266-.568-2.262-1.37-2.99-2.412-.728-1.04-1.24-2.306-1.534-3.8-.294-1.494-.44-3.15-.44-4.964V60.43h7.383v16.565c0 2.42.346 4.226 1.04 5.417.693 1.192 1.924 1.787 3.692 1.787 2.01 0 3.466-.653 4.368-1.958.9-1.305 1.352-3.45 1.352-6.438V60.43h7.384v29.33h-7.02zm-29.85-9.02H29.098l-2.912 9.02H17.97l14.04-40.505h8.37L54.266 89.76H45.79l-2.81-9.02zm-6.81-21.5h-.105L31.23 74.1h9.62L36.17 59.24z" id="path-3" class="cls-5"/></g></svg>