<svg xmlns="http://www.w3.org/2000/svg" preserveAspectRatio="xMidYMid" width="100" height="139" viewBox="0 0 100 139"><defs><style>.cls-3 { fill: #f9c658; } .cls-4 { fill: #000000; opacity: 0.1; } .cls-5 { fill: #ffffff; }</style></defs><g id="bridgesvg" fill-rule="evenodd"><path d="M4 0h63.067L100 33.083V135c0 2.21-1.79 4-4 4H4c-2.21 0-4-1.79-4-4V4c0-2.21 1.79-4 4-4z" id="path-1" class="cls-3"/><path d="M67 29V-.14L99.98 33H71" id="path-2" class="cls-4"/><path d="M72.685 69.893c-.486-.052-.954-.08-1.404-.08-1.35 0-2.495.227-3.43.678-.937.45-1.69 1.067-2.263 1.847-.572.78-.98 1.69-1.222 2.73-.243 1.04-.364 2.166-.364 3.38v12.115h-7.383V63.68h7.02v4.99h.104c.347-.83.815-1.603 1.405-2.313.59-.71 1.265-1.318 2.028-1.82.762-.503 1.577-.893 2.444-1.17.866-.278 1.768-.416 2.704-.416.486 0 1.023.087 1.613.26v6.865c-.347-.07-.763-.13-1.248-.182zm-22.75 18.122c-1.23.866-2.635 1.508-4.212 1.923-1.578.417-3.198.624-4.862.624H22.87V53.435h17.47c1.77 0 3.38.156 4.837.468 1.456.312 2.704.823 3.744 1.534 1.04.71 1.847 1.655 2.42 2.834.57 1.18.857 2.635.857 4.37 0 1.87-.425 3.43-1.274 4.678-.85 1.248-2.106 2.27-3.77 3.07 2.288.657 3.995 1.81 5.122 3.456 1.126 1.647 1.69 3.632 1.69 5.955 0 1.87-.364 3.49-1.092 4.86-.728 1.37-1.708 2.488-2.938 3.355zm-6.11-26.105c-.312-.554-.728-.987-1.248-1.3-.52-.31-1.118-.528-1.794-.65-.676-.12-1.378-.18-2.106-.18h-7.644v8.683H39.3c1.457 0 2.653-.347 3.59-1.04.935-.694 1.403-1.82 1.403-3.38 0-.867-.156-1.578-.468-2.133zm.364 13.338c-1.076-.814-2.497-1.22-4.265-1.22h-8.892v10.19h8.736c.796 0 1.56-.077 2.287-.233.728-.156 1.37-.416 1.924-.78.555-.365.997-.86 1.327-1.483.33-.623.494-1.42.494-2.39 0-1.908-.537-3.27-1.61-4.084z" id="path-3" class="cls-5"/></g></svg>