<svg xmlns="http://www.w3.org/2000/svg" preserveAspectRatio="xMidYMid" width="100" height="139" viewBox="0 0 100 139"><defs><style>.cls-3 { fill: #2aa8e2; } .cls-4 { fill: #000000; opacity: 0.1; } .cls-5 { fill: #ffffff; }</style></defs><g id="css3svg" fill-rule="evenodd"><path d="M4 .156h63.067L100 33.24v101.916c0 2.21-1.79 4-4 4H4c-2.21 0-4-1.79-4-4v-131c0-2.21 1.79-4 4-4z" id="path-1" class="cls-3"/><path d="M67 29.156V.016l32.98 33.14H71" id="path-2" class="cls-4"/><path d="M24.997 47.172l4.78 51.44 20.714 5.538 20.716-5.542 4.78-51.436h-50.99zM65.72 63.84l-15.25 6.48-.037.01H65.18l-1.686 19.267-13.003 3.77-13.07-3.842-.837-9.7h6.464l.423 5.025 6.957 1.748 7.238-2.027.49-8.094-21.993-.072v-.008l-.025.008-.49-6.074 14.827-6.13.863-.36h-.863-15.39l-.775-6.208H66.35l-.632 6.207z" id="path-3" class="cls-5"/></g></svg>