<svg xmlns="http://www.w3.org/2000/svg" preserveAspectRatio="xMidYMid" width="100" height="139" viewBox="0 0 100 139"><defs><style>.cls-3 { fill: #61d1f2; } .cls-4 { fill: #000000; opacity: 0.1; } .cls-5 { fill: #ffffff; }</style></defs><g id="document-filesvg" fill-rule="evenodd"><path d="M4 0h63.067L100 33.083V135c0 2.21-1.79 4-4 4H4c-2.21 0-4-1.79-4-4V4c0-2.21 1.79-4 4-4z" id="path-1" class="cls-3"/><path d="M67 29V-.14L99.98 33H71" id="path-2" class="cls-4"/><path d="M18 96v-5h64v5H18zm0-17h64v5H18v-5zm0-13h64v5H18v-5zm0-12h64v5H18v-5zm19-12h26v5H37v-5zm7 66H18v-5h26v5z" id="path-3" class="cls-5"/></g></svg>