<svg xmlns="http://www.w3.org/2000/svg" preserveAspectRatio="xMidYMid" width="101" height="139" viewBox="0 0 101 139"><defs><style>.cls-3 { fill: #0091ff; } .cls-4 { fill: #000000; opacity: 0.1; } .cls-5 { fill: #ffffff; }</style></defs><g id="downloadsvg" fill-rule="evenodd"><path d="M4.014-.005H67.3L100.348 33v101.68c0 2.204-1.797 3.99-4.013 3.99H4.015c-2.218 0-4.015-1.786-4.015-3.99V3.985C0 1.78 1.797-.005 4.014-.005z" id="path-1" class="cls-3"/><path d="M67.233 28.927V-.146l33.096 33.064H71.246" id="path-2" class="cls-4"/><path d="M45.995 80.49l-.006-25.994c-.003-2.124 1.762-3.85 3.934-3.85 2.176.002 3.934 1.72 3.936 3.85-.002 6.806.007 25.974.007 25.974s1.33-1.286 7.397-7.222c1.534-1.502 4.027-1.505 5.564 0s1.535 3.943 0 5.445L52.71 92.51c-1.534 1.502-4.024 1.502-5.562-.003L33.146 78.805c-1.536-1.505-1.536-3.943 0-5.445 1.535-1.504 4.026-1.504 5.563 0 4.918 4.815 7.285 7.13 7.285 7.13z" id="path-3" class="cls-5"/></g></svg>