<svg xmlns="http://www.w3.org/2000/svg" preserveAspectRatio="xMidYMid" width="101" height="139" viewBox="0 0 101 139"><defs><style>.cls-3 { fill: #41c02f; } .cls-4 { fill: #000000; opacity: 0.1; } .cls-5 { fill: #ffffff; }</style></defs><g id="dreamweaversvg" fill-rule="evenodd"><path d="M4.014.15H67.3l33.048 33.007v101.68c0 2.203-1.797 3.99-4.013 3.99H4.015c-2.218 0-4.015-1.787-4.015-3.99V4.14C0 1.94 1.797.15 4.014.15z" id="path-1" class="cls-3"/><path d="M67.233 29.083V.01l33.096 33.064H71.246" id="path-2" class="cls-4"/><path d="M78.58 88.375h-7.3l-4.6-17.35h-.1l-4.4 17.35h-7.35l-8.2-25.85h7.5l4.75 17.55h.1l4.3-17.55h6.9l4.4 17.5h.1l4.75-17.5h7.3l-8.15 25.85zm-36.274-5.15c-1.35 1.6-3.033 2.86-5.05 3.775-2.017.917-4.392 1.375-7.125 1.375h-15.4v-35.7h15.4c2.3 0 4.443.367 6.426 1.1 1.983.734 3.7 1.834 5.15 3.3 1.45 1.467 2.583 3.3 3.4 5.5.817 2.2 1.225 4.784 1.225 7.75 0 2.6-.332 5-1 7.2-.666 2.2-1.674 4.1-3.024 5.7zM37.956 66.2c-.35-1.45-.925-2.69-1.725-3.725-.8-1.033-1.857-1.825-3.174-2.375s-2.942-.825-4.875-.825h-5.6v22.5h7c1.134 0 2.234-.183 3.3-.55 1.068-.366 2.018-.975 2.85-1.825.834-.85 1.5-1.958 2-3.325.5-1.366.75-3.033.75-5 0-1.8-.174-3.425-.524-4.875z" id="path-3" class="cls-5"/></g></svg>