<svg xmlns="http://www.w3.org/2000/svg" preserveAspectRatio="xMidYMid" width="100" height="139" viewBox="0 0 100 139"><defs><style>.cls-3 { fill: #ffd300; } .cls-4 { fill: #000000; opacity: 0.1; } .cls-5 { fill: #ffffff; }</style></defs><g id="fireworksvg" fill-rule="evenodd"><path d="M4 0h63.067L100 33.083V135c0 2.21-1.79 4-4 4H4c-2.21 0-4-1.79-4-4V4c0-2.21 1.79-4 4-4z" id="path-1" class="cls-3"/><path d="M67 29V-.14L99.98 33H71" id="path-2" class="cls-4"/><path d="M76.577 87.563h-7.592L64.2 69.52h-.103L59.52 87.562h-7.643L43.35 60.68h7.8l4.94 18.25h.103l4.472-18.25h7.176l4.577 18.2h.104l4.94-18.2h7.593l-8.476 26.883zM26.033 65.88H41.58v6.343H26.034v15.34H17.87v-37.13h26.103V57.3h-17.94v8.58z" id="path-3" class="cls-5"/></g></svg>