<svg xmlns="http://www.w3.org/2000/svg" preserveAspectRatio="xMidYMid" width="100" height="139" viewBox="0 0 100 139"><defs><style>.cls-3 { fill: #4b5abc; } .cls-4 { fill: #000000; opacity: 0.1; } .cls-5 { fill: #ffffff; }</style></defs><g id="google-drivesvg" fill-rule="evenodd"><path d="M4 .156h63.067L100 33.24v101.916c0 2.21-1.79 4-4 4H4c-2.21 0-4-1.79-4-4v-131c0-2.21 1.79-4 4-4z" id="path-1" class="cls-3"/><path d="M67 29.156V.016l32.98 33.14H71" id="path-2" class="cls-4"/><path d="M42.237 47.156h17.23L76 75.38H58.767l-16.53-28.224zm-9.49 44.252L24 76.57l16.568-28.255 8.747 14.838-16.568 28.255zM76 77.362l-8.53 14.794H34.63l8.528-14.794H76z" id="path-3" class="cls-5"/></g></svg>