<svg xmlns="http://www.w3.org/2000/svg" preserveAspectRatio="xMidYMid" width="101" height="139" viewBox="0 0 101 139"><defs><style>.cls-3 { fill: #ff543d; } .cls-4 { fill: #000000; opacity: 0.1; } .cls-6 { fill: #ffffff; }</style></defs><g id="html5svg" fill-rule="evenodd"><path d="M4.014-.005H67.3L100.348 33v101.68c0 2.204-1.797 3.99-4.013 3.99H4.015c-2.218 0-4.015-1.786-4.015-3.99V3.985C0 1.78 1.797-.005 4.014-.005z" id="path-1" class="cls-3"/><path d="M67.233 28.927V-.146l33.096 33.064H71.246" id="path-2" class="cls-4"/><path d="M78.784 42.665l-4.93 44.274c-.072.653-.29 1.232-.652 1.74-.435.872-1.16 1.525-2.03 1.96l-19.504 9.58c-.652.29-1.668.436-1.668.436s-1.016-.146-1.668-.435L28.83 90.64c-.872-.435-1.597-1.088-2.032-1.96-.363-.508-.58-1.087-.652-1.74l-4.93-44.275c0-.146-.218-.363-.218-.508v-.073c0-2.395 2.176-4.428 4.64-4.428H74.362c2.466 0 4.642 2.033 4.642 4.428v.073c0 .145-.218.362-.218.508z" id="path-3" class="cls-3"/><path d="M29.196 52.216h40.978l-.825 8.533-30.965.015.692 7.868 29.704-.017-2.34 24.928-16.692 4.662-16.658-4.39-1.005-13.01 8-.047.69 6.626 9.09 2.282 9.084-2.238.98-10.596H31.53l-2.336-24.618z" id="path-4" class="cls-6"/></g></svg>