<svg xmlns="http://www.w3.org/2000/svg" preserveAspectRatio="xMidYMid" width="101" height="139" viewBox="0 0 101 139"><defs><style>.cls-3 { fill: #ffd300; } .cls-4 { fill: #000000; opacity: 0.1; } .cls-5 { fill: #ffffff; }</style></defs><g id="illustratorsvg" fill-rule="evenodd"><path d="M4.014-.005H67.3L100.348 33v101.68c0 2.204-1.797 3.99-4.013 3.99H4.015c-2.218 0-4.015-1.786-4.015-3.99V3.985C0 1.78 1.797-.005 4.014-.005z" id="path-1" class="cls-3"/><path d="M67.233 28.927V-.146l33.096 33.064H71.246" id="path-2" class="cls-4"/><path d="M71.425 55.17c-.226.484-.525.91-.897 1.273-.373.364-.81.655-1.313.87-.503.218-1.04.326-1.612.326-.555 0-1.08-.11-1.573-.326-.494-.216-.923-.507-1.287-.87-.364-.365-.655-.79-.87-1.275-.218-.486-.326-1.006-.326-1.56 0-.573.108-1.11.325-1.613.216-.503.507-.936.87-1.3.365-.364.794-.654 1.288-.87.494-.218 1.018-.326 1.573-.326.572 0 1.11.11 1.612.326.502.217.94.507 1.313.87.372.365.67.798.897 1.3.225.504.338 1.04.338 1.613 0 .554-.113 1.074-.338 1.56zM53.55 87.603c-.39-.303-.672-.68-.845-1.13l-2.808-7.67H34.323l-2.808 7.67c-.14.398-.412.762-.82 1.09-.406.33-.905.495-1.494.495h-5.433l14.768-37.597h7.15L60.453 88.06h-5.408c-.607 0-1.105-.153-1.495-.456zM43.527 61.357c-.208-.555-.438-1.21-.69-1.963-.25-.754-.497-1.573-.74-2.457-.243.884-.48 1.707-.715 2.47-.234.763-.464 1.43-.69 2.002l-4.575 12.453h11.986l-4.576-12.506zM70.8 88.06h-6.42V61.382h6.42V88.06z" id="path-3" class="cls-5"/></g></svg>