<svg xmlns="http://www.w3.org/2000/svg" preserveAspectRatio="xMidYMid" width="100" height="139" viewBox="0 0 100 139"><defs><style>.cls-3 { fill: #0091ff; } .cls-4 { fill: #000000; opacity: 0.1; } .cls-5 { fill: #ffffff; }</style></defs><g id="image" fill-rule="evenodd"><path d="M4 0h63.067L100 33.083V135c0 2.21-1.79 4-4 4H4c-2.21 0-4-1.79-4-4V4c0-2.21 1.79-4 4-4z" id="path-1" class="cls-3"/><path d="M67 29V-.14L99.98 33H71" id="path-2" class="cls-4"/><path d="M86.443 92.478c-.348.348-.805.522-1.26.522-.458 0-.914-.174-1.262-.522L65.56 74.13l-13.01 13c-.697.696-1.826.696-2.523 0-.697-.696-.697-1.824 0-2.52l4.144-4.14-17.26-18.816-21.877 20.178c-.343.316-.777.472-1.21.472-.48 0-.96-.193-1.31-.573-.67-.722-.624-1.85.1-2.518l23.19-21.392c.35-.32.797-.48 1.286-.47.473.02.92.227 1.24.576l18.365 20.02 7.602-7.598c.697-.696 1.825-.696 2.522 0l19.623 19.61c.697.695.697 1.823 0 2.52zM57.497 69.015c-5.256 0-9.515-4.257-9.515-9.508 0-5.25 4.26-9.507 9.515-9.507 5.256 0 9.515 4.257 9.515 9.507s-4.26 9.508-9.515 9.508zM57.5 54c-3.038 0-5.5 2.463-5.5 5.5 0 3.038 2.462 5.5 5.5 5.5s5.5-2.462 5.5-5.5c0-3.037-2.462-5.5-5.5-5.5z" id="path-3" class="cls-5"/></g></svg>