<svg xmlns="http://www.w3.org/2000/svg" preserveAspectRatio="xMidYMid" width="101" height="139" viewBox="0 0 101 139"><defs><style>.cls-3 { fill: #4b5abc; } .cls-4 { fill: #000000; opacity: 0.1; } .cls-5 { fill: #ffffff; }</style></defs><g id="image-gallerysvg" fill-rule="evenodd"><path d="M4.014.15H67.3l33.048 33.007v101.68c0 2.203-1.797 3.99-4.013 3.99H4.015c-2.218 0-4.015-1.787-4.015-3.99V4.14C0 1.938 1.797.152 4.014.152z" id="path-1" class="cls-3"/><path d="M67.233 29.083V.01l33.096 33.064H71.246" id="path-2" class="cls-4"/><path d="M17 111.813v-66h66v66H17zm63-63H20v39.93l21.804-20.11c.35-.32.796-.48 1.285-.47.473.018.92.226 1.24.575l18.365 20.02 7.602-7.597c.697-.695 1.826-.695 2.522 0L80 89.077V48.813zm0 45.53c-.024-.022-.056-.03-.08-.053l-8.362-9.348-13.01 13c-.697.697-1.826.697-2.523 0-.697-.696-.697-1.824 0-2.52l4.144-4.14-17.26-18.816-21.877 20.178c-.295.272-.66.403-1.033.44v15.73h60v-14.47zM63.497 79.827c-5.256 0-9.515-4.257-9.515-9.507s4.26-9.507 9.515-9.507c5.256 0 9.515 4.257 9.515 9.507s-4.26 9.507-9.515 9.507zm.003-15.014c-3.037 0-5.5 2.462-5.5 5.5 0 3.037 2.463 5.5 5.5 5.5 3.038 0 5.5-2.463 5.5-5.5 0-3.038-2.462-5.5-5.5-5.5zm-41.5-25h56v3H22v-3zm5-6h46v3H27v-3z" id="path-3" class="cls-5"/></g></svg>