<svg xmlns="http://www.w3.org/2000/svg" preserveAspectRatio="xMidYMid" width="100" height="139" viewBox="0 0 100 139"><defs><style>.cls-3 { fill: #d13da4; } .cls-4 { fill: #000000; opacity: 0.1; } .cls-5 { fill: #ffffff; }</style></defs><g id="indesignsvg" fill-rule="evenodd"><path d="M4 0h63.067L100 33.083V135c0 2.21-1.79 4-4 4H4c-2.21 0-4-1.79-4-4V4c0-2.21 1.79-4 4-4z" id="path-1" class="cls-3"/><path d="M67 29V-.14L99.98 33H71" id="path-2" class="cls-4"/><path d="M60.18 87.563v-3.3h-.1c-.832 1.4-1.924 2.408-3.274 3.024-1.35.617-2.875.925-4.575.925-1.932 0-3.632-.374-5.1-1.124-1.466-.75-2.674-1.767-3.624-3.05-.95-1.283-1.667-2.758-2.15-4.425-.483-1.667-.725-3.4-.725-5.2 0-1.733.243-3.408.726-5.025.483-1.617 1.2-3.042 2.15-4.276.95-1.232 2.142-2.224 3.575-2.974 1.434-.75 3.1-1.125 5-1.125 1.534 0 2.993.325 4.376.975 1.383.65 2.475 1.608 3.275 2.875h.1v-13h7.1v35.7h-6.75zm-.4-16.076c-.2-.982-.54-1.85-1.024-2.6-.483-.75-1.108-1.357-1.875-1.824-.766-.467-1.732-.7-2.9-.7-1.166 0-2.15.233-2.95.7-.8.467-1.44 1.083-1.924 1.85-.483.767-.833 1.642-1.05 2.625-.217.983-.325 2.008-.325 3.075 0 1 .118 2 .35 3 .234 1 .61 1.892 1.126 2.675.517.783 1.167 1.417 1.95 1.9.783.483 1.725.725 2.825.725 1.168 0 2.143-.233 2.926-.7.783-.467 1.408-1.092 1.875-1.875.468-.783.8-1.675 1-2.676.2-1 .3-2.032.3-3.1 0-1.066-.1-2.09-.3-3.075zM29.73 51.863h7.85v35.7h-7.85v-35.7z" id="path-3" class="cls-5"/></g></svg>