<svg xmlns="http://www.w3.org/2000/svg" preserveAspectRatio="xMidYMid" width="100" height="139" viewBox="0 0 100 139"><defs><style>.cls-3 { fill: #4d6180; } .cls-4 { fill: #000000; opacity: 0.3; } .cls-5 { fill: #ffffff; }</style></defs><g id="lightroomsvg" fill-rule="evenodd"><path d="M4 0h63.067L100 33.083V135c0 2.21-1.79 4-4 4H4c-2.21 0-4-1.79-4-4V4c0-2.21 1.79-4 4-4z" id="path-1" class="cls-3"/><path d="M67 29V-.14L99.98 33H71" id="path-2" class="cls-4"/><path d="M72.913 66.893c-.486-.052-.954-.08-1.404-.08-1.353 0-2.497.227-3.433.678-.936.45-1.69 1.067-2.262 1.847-.572.78-.98 1.69-1.222 2.73-.243 1.04-.364 2.166-.364 3.38v12.115h-7.385V60.68h7.02v4.99h.104c.345-.83.813-1.603 1.403-2.313.59-.71 1.265-1.318 2.028-1.82.763-.503 1.578-.893 2.445-1.17.866-.278 1.768-.416 2.704-.416.484 0 1.02.087 1.61.26v6.865c-.346-.07-.762-.13-1.247-.182zM28.87 50.435h8.163V80.7H55.13v6.862H28.87V50.435z" id="path-3" class="cls-5"/></g></svg>