<svg xmlns="http://www.w3.org/2000/svg" preserveAspectRatio="xMidYMid" width="100" height="139" viewBox="0 0 100 139"><defs><style>.cls-3 { fill: #315a9f; } .cls-4 { fill: #000000; opacity: 0.23; } .cls-5 { fill: #ffffff; }</style></defs><g id="media-encoresvg" fill-rule="evenodd"><path d="M4 0h63.067L100 33.083V135c0 2.21-1.79 4-4 4H4c-2.21 0-4-1.79-4-4V4c0-2.21 1.79-4 4-4z" id="path-1" class="cls-3"/><path d="M67 29V-.14L99.98 33H71" id="path-2" class="cls-4"/><path d="M70.54 87.562V72.378c0-2.218-.346-3.874-1.04-4.966-.693-1.09-1.923-1.637-3.69-1.637-2.012 0-3.468.598-4.37 1.793-.9 1.197-1.35 3.164-1.35 5.902v14.092h-7.385V60.68h7.02v3.743h.156c.937-1.56 2.15-2.696 3.64-3.406 1.49-.71 3.017-1.066 4.577-1.066 1.976 0 3.596.27 4.862.806 1.264.538 2.26 1.283 2.99 2.237.727.953 1.238 2.114 1.533 3.484.294 1.37.442 2.886.442 4.55v16.535H70.54zM21.87 50.435h27.767V57.3H30.033v7.954h17.992v6.344H30.033v9.1h20.02v6.864H21.87V50.435z" id="path-3" class="cls-5"/></g></svg>