<svg xmlns="http://www.w3.org/2000/svg" preserveAspectRatio="xMidYMid" width="100" height="139" viewBox="0 0 100 139"><defs><style>.cls-3 { fill: #ff543d; } .cls-4 { fill: #000000; opacity: 0.1; } .cls-5 { fill: #ffffff; }</style></defs><g id="moviesvg" fill-rule="evenodd"><path d="M4 0h63.067L100 33.083V135c0 2.21-1.79 4-4 4H4c-2.21 0-4-1.79-4-4V4c0-2.21 1.79-4 4-4z" id="path-1" class="cls-3"/><path d="M67 29V-.14L99.98 33H71" id="path-2" class="cls-4"/><path d="M79.89 95H20.11C17.845 95 16 93.16 16 90.896v-43.79c0-2.263 1.844-4.105 4.11-4.105h59.78c2.266 0 4.11 1.843 4.11 4.107v43.79C84 93.158 82.156 95 79.89 95zM23.007 45.99H20.33c-.738 0-1.34.618-1.34 1.38v1.383h4.018V45.99zm0 5.53H18.99v2.766h4.018V51.52zm0 5.533H18.99v2.767h4.018v-2.767zm0 5.532H18.99v2.766h4.018v-2.765zm0 5.533H18.99v2.766h4.018v-2.766zm0 5.533H18.99v2.765h4.018V73.65zm0 5.533H18.99v2.766h4.018v-2.767zm0 5.532H18.99v2.768h4.018v-2.768zm0 5.532H18.99v1.384c0 .764.602 1.384 1.34 1.384h2.678v-2.767zm2.99 2.767h48.003V45.99H26v47.024zM81.01 47.37c0-.762-.6-1.38-1.338-1.38h-2.678v2.763h4.017V47.37zm0 4.15h-4.016v2.766h4.017V51.52zm0 5.533h-4.016v2.767h4.017v-2.767zm0 5.532h-4.016v2.766h4.017v-2.765zm0 5.533h-4.016v2.766h4.017v-2.766zm0 5.533h-4.016v2.765h4.017V73.65zm0 5.533h-4.016v2.766h4.017v-2.767zm0 5.532h-4.016v2.768h4.017v-2.768zm0 5.532h-4.016v2.767h2.678c.74 0 1.34-.62 1.34-1.383v-1.383zM44.02 78.01l-.007-19.025 15.98 9.508-15.973 9.518zm2.7-4.827l7.866-4.688-7.868-4.682.003 9.37z" id="path-3" class="cls-5"/></g></svg>