<svg xmlns="http://www.w3.org/2000/svg" preserveAspectRatio="xMidYMid" width="100" height="139" viewBox="0 0 100 139"><defs><style>.cls-3 { fill: #aae51b; } .cls-4 { fill: #000000; opacity: 0.1; } .cls-5 { fill: #ffffff; }</style></defs><g id="musesvg" fill-rule="evenodd"><path d="M4 0h63.067L100 33.083V135c0 2.21-1.79 4-4 4H4c-2.21 0-4-1.79-4-4V4c0-2.21 1.79-4 4-4z" id="path-1" class="cls-3"/><path d="M67 29V-.14L99.98 33H71" id="path-2" class="cls-4"/><path d="M78.373 87.562V83.82h-.156c-.936 1.56-2.15 2.685-3.64 3.38-1.49.692-3.016 1.04-4.576 1.04-1.975 0-3.596-.26-4.86-.78-1.267-.522-2.263-1.258-2.99-2.212-.73-.953-1.24-2.114-1.535-3.483-.295-1.37-.442-2.887-.442-4.55V60.68h7.384v15.183c0 2.218.346 3.874 1.04 4.966.693 1.09 1.924 1.636 3.692 1.636 2.01 0 3.465-.597 4.367-1.793.9-1.196 1.352-3.164 1.352-5.902V60.68h7.383V87.56h-7.02zM48.213 61.25h-.104l-9.1 26.312h-6.293l-9.1-26.05h-.104v26.05H15.87V50.435h11.49l8.685 25.53h.104l8.215-25.53h11.492v37.127h-7.644V61.25z" id="path-3" class="cls-5"/></g></svg>