<svg xmlns="http://www.w3.org/2000/svg" preserveAspectRatio="xMidYMid" width="100" height="139" viewBox="0 0 100 139"><defs><style>.cls-3 { fill: #ff6469; } .cls-4 { fill: #000000; opacity: 0.1; } .cls-5 { fill: #ffffff; }</style></defs><g id="musicsvg" fill-rule="evenodd"><path d="M4 0h63.067L100 33.083V135c0 2.21-1.79 4-4 4H4c-2.21 0-4-1.79-4-4V4c0-2.21 1.79-4 4-4z" id="path-1" class="cls-3"/><path d="M67 29V-.14L99.98 33H71" id="path-2" class="cls-4"/><path d="M76.32 51.065c-6.058-5.65-12.94-5.227-15.327-4.866l-.062 39.694c.13.603.22 1.212.22 1.827 0 6.226-6.764 11.29-15.08 11.29-8.314 0-15.08-5.064-15.08-11.29 0-6.222 6.766-11.287 15.08-11.287 5.093 0 9.18 1.555 11.93 4.567V44l1.402-.524c.413-.11 10.16-2.623 18.607 5.348l-1.69 2.24z" id="path-3" class="cls-5"/></g></svg>