<svg xmlns="http://www.w3.org/2000/svg" preserveAspectRatio="xMidYMid" width="101" height="139" viewBox="0 0 101 139"><defs><style>.cls-3 { fill: #ff543d; } .cls-4 { fill: #000000; opacity: 0.1; } .cls-5 { fill: #ffffff; }</style></defs><g id="pdfsvg" fill-rule="evenodd"><path d="M4.014-.005H67.3L100.348 33v101.68c0 2.204-1.797 3.99-4.013 3.99H4.015c-2.218 0-4.015-1.786-4.015-3.99V3.985C0 1.78 1.797-.005 4.014-.005z" id="path-1" class="cls-3"/><path d="M67.233 28.927V-.146l33.096 33.064H71.246" id="path-2" class="cls-4"/><path d="M27.894 105.656c-.814 0-1.598-.27-2.263-.78-2.435-1.87-2.76-3.95-2.606-5.37.425-3.895 5.133-7.974 13.997-12.13 3.52-7.89 6.865-17.61 8.86-25.733-2.333-5.2-4.6-11.945-2.947-15.902.578-1.385 1.597-2.36 2.945-2.82.533-.183 1.056-.276 1.55-.276 1.18 0 2.233.528 2.968 1.485.69.9 2.767 3.61-.36 17.084 3.153 6.664 7.62 13.452 11.9 18.102 3.066-.57 5.705-.858 7.854-.858 3.663 0 5.882.875 6.787 2.672.748 1.49.442 3.23-.913 5.17-1.303 1.867-3.098 2.852-5.192 2.852-2.846 0-6.156-1.84-9.85-5.47-6.638 1.42-14.387 3.952-20.648 6.755-1.956 4.248-3.83 7.668-5.573 10.175-2.393 3.44-4.46 5.044-6.506 5.044zm6.224-12.268c-5 2.874-7.036 5.236-7.182 6.568-.024.218-.086.798 1.008 1.657.35-.113 2.384-1.063 6.174-8.225zm31.516-10.585c1.905 1.5 3.59 2.32 4.838 2.32.548 0 1.268-.132 1.99-1.165.348-.5.483-.82.535-.992-.286-.156-1.128-.478-3.207-.478-1.18 0-2.584.107-4.156.315zM48.54 66.997c-1.672 5.922-3.88 12.317-6.252 18.107 4.886-1.94 10.202-3.635 15.193-4.836-3.156-3.752-6.31-8.44-8.94-13.27zm-1.19-20.314c-.054.008-.127.025-.227.06-.23.078-.414.206-.57.583-.602 1.44-.126 4.175.794 7.116.763-5.067.36-7.218.002-7.76z" id="path-3" class="cls-5"/></g></svg>