<svg xmlns="http://www.w3.org/2000/svg" preserveAspectRatio="xMidYMid" width="100" height="139" viewBox="0 0 100 139"><defs><style>.cls-3 { fill: #0091ff; } .cls-4 { fill: #000000; opacity: 0.1; } .cls-5 { fill: #ffffff; }</style></defs><g id="photoshopsvg" fill-rule="evenodd"><path d="M4 0h63.067L100 33.083V135c0 2.21-1.79 4-4 4H4c-2.21 0-4-1.79-4-4V4c0-2.21 1.79-4 4-4z" id="path-1" class="cls-3"/><path d="M67 29V-.14L99.98 33H71" id="path-2" class="cls-4"/><path d="M72.725 67.512c-.19.113-.434.17-.728.17-.312 0-.646-.088-1-.26-.357-.174-.768-.37-1.236-.586-.467-.217-1-.412-1.598-.585-.598-.172-1.305-.26-2.12-.26-1.265 0-2.26.27-2.99.807-.727.537-1.09 1.24-1.09 2.106 0 .572.185 1.053.558 1.443.372.39.866.732 1.482 1.027.615.295 1.313.56 2.093.793.78.234 1.577.49 2.392.767.814.277 1.612.594 2.392.95.78.354 1.476.805 2.092 1.35.615.547 1.11 1.2 1.482 1.964.372.763.56 1.68.56 2.756 0 1.283-.235 2.466-.703 3.55-.467 1.082-1.152 2.018-2.053 2.807-.902.79-2.015 1.404-3.34 1.846-1.327.442-2.848.663-4.564.663-.92 0-1.816-.084-2.69-.248-.877-.165-1.717-.394-2.523-.69-.806-.294-1.552-.64-2.236-1.04-.685-.398-1.287-.83-1.807-1.3L56.58 83.1c.19-.296.415-.52.675-.677.26-.156.59-.234.988-.234s.775.112 1.13.337c.356.225.768.468 1.236.728.467.26 1.017.503 1.65.728.632.225 1.434.338 2.405.338.762 0 1.417-.09 1.963-.272.546-.182.996-.42 1.352-.715.355-.295.615-.637.78-1.027.164-.39.247-.793.247-1.21 0-.623-.187-1.134-.56-1.533-.372-.4-.866-.745-1.48-1.04-.617-.295-1.32-.56-2.107-.793-.79-.234-1.595-.49-2.418-.767-.824-.277-1.63-.602-2.418-.975-.79-.373-1.49-.845-2.106-1.417-.616-.57-1.11-1.273-1.482-2.105-.373-.832-.56-1.837-.56-3.016 0-1.093.217-2.133.65-3.12.434-.99 1.07-1.85 1.912-2.588.84-.737 1.89-1.326 3.146-1.768 1.256-.442 2.708-.663 4.355-.663 1.836 0 3.51.304 5.017.91 1.508.608 2.764 1.405 3.77 2.393l-1.456 2.314c-.173.277-.355.472-.545.585zm-23.998 4.2c-1.214 1.09-2.73 1.94-4.55 2.547-1.82.606-3.952.91-6.396.91h-5.25v13.233h-6.995V50.807H37.78c2.514 0 4.69.295 6.527.884 1.837.59 3.354 1.414 4.55 2.47 1.196 1.058 2.08 2.324 2.652 3.797.57 1.473.857 3.085.857 4.836 0 1.82-.304 3.488-.91 5.005-.607 1.517-1.517 2.82-2.73 3.913zm-3.822-11.65c-.312-.814-.78-1.507-1.404-2.08-.623-.57-1.412-1.01-2.365-1.312-.954-.303-2.072-.455-3.354-.455h-5.25V69.71h5.25c1.283 0 2.4-.16 3.355-.482.953-.32 1.742-.78 2.366-1.378.625-.598 1.093-1.326 1.405-2.184.312-.858.468-1.816.468-2.873 0-1.005-.156-1.915-.468-2.73z" id="path-3" class="cls-5"/></g></svg>