<svg xmlns="http://www.w3.org/2000/svg" preserveAspectRatio="xMidYMid" width="101" height="139" viewBox="0 0 101 139"><defs><style>.cls-3 { fill: #329dd8; } .cls-4 { fill: #000000; opacity: 0.1; } .cls-5 { fill: #ffffff; }</style></defs><g id="preludesvg" fill-rule="evenodd"><path d="M4.014-.005H67.3L100.348 33v101.68c0 2.204-1.797 3.99-4.013 3.99H4.015c-2.218 0-4.015-1.786-4.015-3.99V3.985C0 1.78 1.797-.005 4.014-.005z" id="path-1" class="cls-3"/><path d="M67.233 28.927V-.146l33.096 33.064H71.246" id="path-2" class="cls-4"/><path d="M61.9 87.22V50.09h7.385v37.13H61.9zm-5.38-17.005c-1.024 1.11-2.35 2.002-3.98 2.678-1.63.676-3.605 1.014-5.927 1.014h-8.58V87.22H29.87V50.09h16.743c2.322 0 4.298.34 5.928 1.015 1.63.676 2.956 1.57 3.98 2.678 1.02 1.11 1.767 2.375 2.235 3.796.468 1.42.702 2.894.702 4.42 0 1.49-.234 2.955-.702 4.393-.468 1.44-1.214 2.713-2.236 3.822zM50.954 59.14c-.4-.73-.928-1.292-1.586-1.69-.66-.4-1.423-.668-2.29-.807-.866-.138-1.767-.208-2.703-.208h-6.344v11.128h6.344c.936 0 1.837-.07 2.704-.208.867-.138 1.63-.407 2.29-.806.657-.4 1.186-.963 1.585-1.69.398-.73.598-1.682.598-2.86 0-1.18-.2-2.133-.598-2.86z" id="path-3" class="cls-5"/></g></svg>