<svg xmlns="http://www.w3.org/2000/svg" preserveAspectRatio="xMidYMid" width="100" height="139" viewBox="0 0 100 139"><defs><style>.cls-3 { fill: #471984; } .cls-4 { fill: #000000; opacity: 0.3; } .cls-5 { fill: #ffffff; }</style></defs><g id="premiersvg" fill-rule="evenodd"><path d="M4 0h63.067L100 33.083V135c0 2.21-1.79 4-4 4H4c-2.21 0-4-1.79-4-4V4c0-2.21 1.79-4 4-4z" id="path-1" class="cls-3"/><path d="M67 29V-.14L99.98 33H71" id="path-2" class="cls-4"/><path d="M74.76 66.893c-.485-.053-.953-.078-1.403-.078-1.352 0-2.496.225-3.432.676-.936.45-1.69 1.066-2.262 1.847-.572.78-.98 1.69-1.222 2.73s-.363 2.166-.363 3.38v12.116h-7.384V60.68h7.02v4.99h.104c.346-.832.814-1.603 1.404-2.313.59-.71 1.266-1.318 2.03-1.82.76-.503 1.576-.893 2.443-1.17.866-.278 1.768-.416 2.704-.416.485 0 1.022.087 1.612.26v6.865c-.348-.07-.764-.13-1.25-.182zm-21.24 3.665c-1.024 1.11-2.35 2.002-3.98 2.68-1.63.675-3.605 1.013-5.927 1.013h-8.58v13.313H26.87v-37.13h16.743c2.322 0 4.298.34 5.928 1.016 1.63.674 2.956 1.567 3.98 2.676 1.02 1.11 1.767 2.375 2.235 3.797.468 1.42.702 2.894.702 4.42 0 1.49-.234 2.955-.702 4.394-.468 1.438-1.214 2.712-2.236 3.82zm-5.565-11.075c-.4-.728-.928-1.292-1.586-1.69-.66-.4-1.423-.668-2.29-.806-.866-.14-1.767-.21-2.703-.21h-6.344v11.13h6.344c.936 0 1.837-.07 2.704-.208.867-.14 1.63-.41 2.29-.807.657-.4 1.186-.962 1.585-1.69.398-.728.598-1.682.598-2.86 0-1.18-.2-2.132-.598-2.86z" id="path-3" class="cls-5"/></g></svg>