<svg xmlns="http://www.w3.org/2000/svg" preserveAspectRatio="xMidYMid" width="100" height="139" viewBox="0 0 100 139"><defs><style>.cls-3 { fill: #ff543d; } .cls-4 { fill: #000000; opacity: 0.1; } .cls-5 { fill: #ffffff; }</style></defs><g id="presentationsvg" fill-rule="evenodd"><path d="M4 0h63.067L100 33.084V135c0 2.21-1.79 4-4 4H4c-2.21 0-4-1.79-4-4V4c0-2.21 1.79-4 4-4z" id="path-1" class="cls-3"/><path d="M67 29V-.14L99.98 33H71" id="path-2" class="cls-4"/><path d="M54 111v3h-8v-3H16v-3h68v3H54zm20-39.047L53 72V51c11.65 0 21 9.38 21 20.953zM48.094 97C36.444 97 27 87.62 27 76.048c0-11.587 9.446-21.24 21.095-21.162.34.003.57.098.905.114v21h20c0 11.572-9.256 21-20.906 21zM16 39h68v3H16v-3z" id="path-3" class="cls-5"/></g></svg>