<svg xmlns="http://www.w3.org/2000/svg" preserveAspectRatio="xMidYMid" width="101" height="139" viewBox="0 0 101 139"><defs><style>.cls-3 { fill: #24aeb5; } .cls-4 { fill: #000000; opacity: 0.1; } .cls-5 { fill: #ffffff; }</style></defs><g id="speed-gradesvg" fill-rule="evenodd"><path d="M4.014-.005H67.3L100.348 33v101.68c0 2.204-1.797 3.99-4.013 3.99H4.015c-2.218 0-4.015-1.786-4.015-3.99V3.985C0 1.78 1.797-.005 4.014-.005z" id="path-1" class="cls-3"/><path d="M67.233 28.927V-.146l33.096 33.064H71.246" id="path-2" class="cls-4"/><path d="M77.16 84.195c-.296 1.386-.93 2.678-1.9 3.874-.97 1.195-2.374 2.21-4.21 3.04-1.84.833-4.3 1.25-7.385 1.25-1.318 0-2.66-.166-4.03-.495-1.37-.33-2.618-.84-3.744-1.534-1.126-.693-2.062-1.585-2.807-2.677-.746-1.092-1.17-2.4-1.274-3.926h7.33c.347 1.386 1.023 2.348 2.03 2.886 1.004.537 2.165.806 3.483.806 2.08 0 3.596-.625 4.55-1.873.953-1.248 1.412-2.826 1.378-4.732V77.28h-.103c-.798 1.42-1.933 2.47-3.406 3.145-1.473.676-3.024 1.014-4.653 1.014-2.01 0-3.744-.356-5.2-1.067-1.456-.71-2.652-1.68-3.588-2.912-.937-1.23-1.622-2.668-2.055-4.315-.434-1.646-.65-3.388-.65-5.226 0-1.734.25-3.407.754-5.02.5-1.61 1.238-3.032 2.21-4.263.97-1.23 2.174-2.21 3.613-2.938 1.438-.73 3.094-1.093 4.966-1.093 1.767 0 3.318.33 4.653.988 1.334.66 2.452 1.768 3.354 3.328h.104v-3.588h7.02v25.168c0 1.075-.147 2.305-.44 3.692zm-6.89-18.902c-.21-.988-.556-1.863-1.04-2.626-.487-.762-1.128-1.37-1.925-1.82-.798-.45-1.803-.676-3.016-.676-1.04 0-1.934.21-2.68.625-.745.416-1.37.98-1.87 1.69-.504.71-.868 1.526-1.093 2.444-.226.918-.338 1.88-.338 2.885 0 .97.094 1.933.285 2.886.19.955.52 1.813.988 2.575.468.763 1.083 1.387 1.846 1.872.76.486 1.715.728 2.86.728 1.04 0 1.957-.208 2.755-.624.797-.415 1.456-.97 1.976-1.663.52-.693.91-1.482 1.17-2.366.26-.883.39-1.81.39-2.78 0-1.11-.103-2.16-.31-3.147zM29.734 57.78c.814.38 1.94.762 3.38 1.143 1.438.382 3.32.867 5.642 1.456.693.138 1.655.39 2.886.753 1.23.364 2.452.945 3.666 1.742 1.212.798 2.26 1.864 3.145 3.198.884 1.335 1.326 3.042 1.326 5.122 0 1.7-.33 3.276-.987 4.732-.66 1.456-1.638 2.713-2.938 3.77-1.3 1.058-2.912 1.88-4.836 2.47-1.925.59-4.153.884-6.683.884-2.046 0-4.03-.25-5.954-.753-1.924-.502-3.623-1.29-5.096-2.366-1.474-1.073-2.644-2.443-3.51-4.107-.867-1.664-1.283-3.64-1.248-5.928h7.903c0 1.248.225 2.306.676 3.172.45.867 1.047 1.57 1.793 2.106.745.538 1.62.936 2.626 1.196 1.004.26 2.044.39 3.12.39.727 0 1.507-.06 2.34-.183.83-.12 1.61-.355 2.34-.702.727-.346 1.333-.823 1.82-1.43.484-.606.727-1.378.727-2.314 0-1.004-.32-1.82-.962-2.443-.642-.624-1.482-1.144-2.522-1.56-1.04-.416-2.22-.78-3.536-1.092-1.318-.312-2.652-.658-4.004-1.04-1.387-.346-2.74-.77-4.056-1.274-1.318-.5-2.496-1.15-3.536-1.95-1.04-.796-1.88-1.793-2.52-2.99-.643-1.195-.963-2.642-.963-4.34 0-1.907.407-3.563 1.222-4.967.813-1.404 1.88-2.574 3.197-3.51 1.317-.936 2.808-1.63 4.472-2.08 1.663-.45 3.327-.676 4.99-.676 1.942 0 3.805.217 5.59.65 1.786.434 3.372 1.136 4.76 2.106 1.385.97 2.486 2.21 3.3 3.718.815 1.51 1.223 3.338 1.223 5.487H40.63c-.07-1.11-.305-2.028-.703-2.756-.4-.727-.928-1.3-1.586-1.715-.658-.416-1.412-.71-2.26-.884-.85-.172-1.778-.26-2.783-.26-.66 0-1.318.07-1.976.21-.658.138-1.256.38-1.793.727-.538.347-.98.78-1.326 1.3-.346.52-.52 1.18-.52 1.976 0 .728.14 1.318.417 1.768.277.452.823.868 1.638 1.25z" id="path-3" class="cls-5"/></g></svg>