<svg xmlns="http://www.w3.org/2000/svg" preserveAspectRatio="xMidYMid" width="100" height="139" viewBox="0 0 100 139"><defs><style>.cls-3 { fill: #2db965; } .cls-4 { fill: #000000; opacity: 0.1; } .cls-5 { fill: #ffffff; }</style></defs><g id="spread-sheetsvg" fill-rule="evenodd"><path d="M4 0h63.067L100 33.084V135c0 2.21-1.79 4-4 4H4c-2.21 0-4-1.79-4-4V4c0-2.21 1.79-4 4-4z" id="path-1" class="cls-3"/><path d="M67 29V-.14L99.98 33H71" id="path-2" class="cls-4"/><path d="M19 111V93.857v-2.57-14.29-2.854V60v-3-16.714h62V111H19zm17-68H22v14h14V43zm0 17H22v14h14V60zm0 17H22v14h14V77zm0 17H22v14h14V94zm42-51H39v14h39V43zm0 17H39v14h39V60zm0 17H39v14h39V77zm0 17H39v14h39V94z" id="path-3" class="cls-5"/></g></svg>