<svg xmlns="http://www.w3.org/2000/svg" preserveAspectRatio="xMidYMid" width="101" height="139" viewBox="0 0 101 139"><defs><style>.cls-3 { fill: #ffd300; } .cls-4 { fill: #000000; opacity: 0.1; } .cls-5 { fill: #ffffff; }</style></defs><g id="text-filesvg" fill-rule="evenodd"><path d="M4.014-.005H67.3L100.348 33v101.68c0 2.204-1.797 3.99-4.013 3.99H4.015c-2.218 0-4.015-1.786-4.015-3.99V3.985C0 1.78 1.797-.005 4.014-.005z" id="path-1" class="cls-3"/><path d="M67.233 28.927V-.146l33.096 33.064H71.246" id="path-2" class="cls-4"/><path d="M61.875 103.934v-2.44c-5.86 0-8.788-2.496-8.788-7.487V56.494c0-1.844 1.35-2.767 4.05-2.767 7.99 0 12.308 4.34 12.957 13.02l2.197-.326V49.415c-1.248.163-2.468.3-3.66.407-1.195.11-2.36.164-3.5.164H33.8c-1.03 0-2.102-.054-3.213-.163-1.112-.107-2.292-.243-3.54-.406L24.85 66.747l2.523.65c1.085-4.664 2.74-8.15 4.964-10.456 2.224-2.304 5.126-3.457 8.707-3.457 2.657 0 3.987 1.004 3.987 3.01v37.514c0 4.99-2.902 7.486-8.706 7.486v2.44h25.55z" id="path-3" class="cls-5"/></g></svg>