<svg xmlns="http://www.w3.org/2000/svg" preserveAspectRatio="xMidYMid" width="100" height="139" viewBox="0 0 100 139"><defs><style>.cls-3 { fill: #0091ff; } .cls-4 { fill: #000000; opacity: 0.1; } .cls-5 { fill: #ffffff; }</style></defs><g id="uploadsvg" fill-rule="evenodd"><path d="M4 0h63.067L100 33.083V135c0 2.21-1.79 4-4 4H4c-2.21 0-4-1.79-4-4V4c0-2.21 1.79-4 4-4z" id="path-1" class="cls-3"/><path d="M67 29V-.14L99.98 33H71" id="path-2" class="cls-4"/><path d="M45.995 64.165L45.99 90.16c-.003 2.124 1.762 3.85 3.934 3.85 2.176 0 3.934-1.72 3.936-3.85-.002-6.806.007-25.973.007-25.973s1.33 1.286 7.397 7.22c1.534 1.503 4.027 1.506 5.564 0 1.537-1.504 1.535-3.942 0-5.444L52.71 52.147c-1.534-1.502-4.024-1.502-5.562.002l-14.002 13.7c-1.536 1.507-1.536 3.944 0 5.446 1.535 1.504 4.026 1.504 5.563 0 4.918-4.815 7.285-7.13 7.285-7.13z" id="path-3" class="cls-5"/></g></svg>