<svg xmlns="http://www.w3.org/2000/svg" preserveAspectRatio="xMidYMid" width="101" height="139" viewBox="0 0 101 139"><defs><style>.cls-3 { fill: #ffa500; } .cls-4 { fill: #000000; opacity: 0.1; } .cls-5 { fill: #ffffff; }</style></defs><g id="vectorsvg" fill-rule="evenodd"><path d="M4.014-.005H67.3L100.348 33v101.68c0 2.204-1.797 3.99-4.013 3.99H4.015c-2.218 0-4.015-1.786-4.015-3.99V3.985C0 1.78 1.797-.005 4.014-.005z" id="path-1" class="cls-3"/><path d="M67.233 28.927V-.146l33.096 33.064H71.246" id="path-2" class="cls-4"/><path d="M67.76 63.03c-.098 0-.19-.015-.286-.027l-10.506 19.59-17.664 4.056L34 78.467l9.414-15.366L65.566 60.4c.21-.996 1.112-1.747 2.194-1.747 1.237 0 2.24.98 2.24 2.19s-1.003 2.188-2.24 2.188zm-16.243 6.024c-2.594-1.496-5.912-.61-7.41 1.98-1.497 2.592-.608 5.903 1.986 7.4 2.594 1.494 5.91.606 7.41-1.984.736-1.273.89-2.72.553-4.04l12.8-9.568c-.72-.312-1.23-.982-1.313-1.778L52.628 69.93c-.33-.328-.688-.633-1.11-.876z" id="path-3" class="cls-5"/><path d="M72.71 62.273c2.695 6.115 3.287 12.932 1.63 19.572-1.88 7.522-6.443 13.93-12.87 18.222-.088.67-.376 1.32-.893 1.835-1.23 1.23-3.213 1.244-4.43.028-1.215-1.216-1.2-3.198.03-4.428 1.186-1.187 3.063-1.23 4.286-.143 5.547-3.89 9.487-9.555 11.137-16.166 1.522-6.1.94-12.358-1.583-17.956-.954-.028-1.896-.392-2.62-1.117-1.2-1.197-1.428-2.99-.72-4.453-3.785-4.892-9.072-8.332-15.197-9.79-7.025-1.672-14.303-.54-20.56 3.153.096.91-.195 1.86-.898 2.564-1.23 1.23-3.21 1.24-4.425.027-1.214-1.213-1.202-3.194.028-4.424 1.023-1.023 2.562-1.19 3.75-.52 6.927-4.132 15-5.402 22.793-3.547 6.657 1.584 12.41 5.3 16.57 10.574 1.417-.58 3.1-.305 4.24.836 1.524 1.522 1.505 4.002-.033 5.54-.073.073-.158.126-.236.193z" id="path-4" class="cls-5"/></g></svg>